<?xml version="1.0" encoding="iso-8859-1"?>
<!-- Generator: Adobe Illustrator 16.0.0, SVG Export Plug-In . SVG Version: 6.00 Build 0)  -->
<!DOCTYPE svg PUBLIC "-//W3C//DTD SVG 1.1//EN" "http://www.w3.org/Graphics/SVG/1.1/DTD/svg11.dtd">
<svg version="1.1" xmlns="http://www.w3.org/2000/svg" xmlns:xlink="http://www.w3.org/1999/xlink" x="0px" y="0px"
	 width="233.202px" height="214.516px" viewBox="0 0 233.202 214.516" style="enable-background:new 0 0 233.202 214.516;"
	 xml:space="preserve">
<g id="Layer_4">
	<g>
		<polygon style="fill:#C51D2A;" points="119.876,62.809 94.454,62.809 94.454,94.139 64.48,94.139 64.48,132.734 0,132.734 
			0,181.321 100.429,181.321 100.429,147.088 149.923,147.088 149.923,62.809 		"/>
		<g>
			<g>
				<g>
					<g>
						<g>
							<rect x="108.28" y="55.997" style="fill:#010101;" width="109.688" height="24.667"/>
							<rect x="121.661" y="74.796" style="fill:#010101;" width="82.922" height="24.668"/>
							<g>
								<g>
									<rect x="136.62" y="95.212" style="fill:#010101;" width="53.008" height="62.98"/>
									<rect x="173.882" y="151.537" style="fill:#010101;" width="15.746" height="62.979"/>
								</g>
								<rect x="136.62" y="151.537" style="fill:#010101;" width="15.746" height="62.979"/>
							</g>
						</g>
						<rect x="217.453" y="62.293" style="fill:#010101;" width="15.749" height="72.425"/>
					</g>
					<rect x="92.684" y="62.293" style="fill:#010101;" width="15.753" height="72.425"/>
				</g>
				<rect x="148.605" y="13.739" style="fill:#010101;" width="28.671" height="44.773"/>
			</g>
			<polygon style="fill:#010101;" points="158.888,25.913 192.672,25.913 192.672,0 166.751,0 166.751,5.5 179.712,5.5 
				179.712,12.167 158.888,12.167 			"/>
		</g>
	</g>
</g>
<g id="Layer_1">
</g>
</svg>
